<svg class="svgpreloader svgpreloader-svg" viewBox="0 0 31 31" version="1.1" xmlns="http://www.w3.org/2000/svg"><g fill-rule="evenodd"><path d="M15.5,31 C24.0604136,31 31,24.0604136 31,15.5 C31,6.93958638 24.0604136,0 15.5,0 C6.93958638,0 0,6.93958638 0,15.5 C0,24.0604136 6.93958638,31 15.5,31 Z M15.5,24 C20.1944204,24 24,20.1944204 24,15.5 C24,10.8055796 20.1944204,7 15.5,7 C10.8055796,7 7,10.8055796 7,15.5 C7,20.1944204 10.8055796,24 15.5,24 Z" fill="#00AFEA"></path><path d="M15.7960584,7.00505942 L15.8509795,0.00389541322 C20.1020367,0.0983450811 23.9309467,1.90428116 26.675877,4.7598713 L26.675877,4.7598713 L21.7412314,9.72958246 C20.2508535,8.11838542 18.1443589,7.08544079 15.7960584,7.00505942 Z" fill="#346B7C"></path></g></svg>