 <svg width="20" height="15" xmlns="http://www.w3.org/2000/svg" xmlns:svg="http://www.w3.org/2000/svg"><path d="m1.90213,4.87054c0.25287,0.17844 1.0151,0.70839 2.28673,1.58959c1.27167,0.8812 2.24586,1.5597 2.9226,2.03554c0.07435,0.05216 0.23231,0.16554 0.47397,0.34031c0.24169,0.17488 0.44251,0.3162 0.60231,0.424c0.15992,0.10776 0.35324,0.22864 0.58016,0.36246c0.22684,0.1337 0.44068,0.23427 0.64146,0.30084c0.20082,0.06712 0.38672,0.10037 0.55773,0.10037l0.01121,0l0.01125,0c0.17101,0 0.35699,-0.03329 0.55781,-0.10037c0.20071,-0.06658 0.41474,-0.16726 0.64138,-0.30084c0.22677,-0.13397 0.42009,-0.25474 0.58,-0.36246c0.15992,-0.1078 0.36058,-0.24911 0.60235,-0.424c0.24161,-0.17492 0.39977,-0.28815 0.47412,-0.34031c0.68405,-0.47584 2.42437,-1.68434 5.22043,-3.62537c0.54285,-0.3791 0.99638,-0.83654 1.36071,-1.37201c0.36461,-0.53523 0.54672,-1.09671 0.54672,-1.68414c0,-0.49088 -0.17672,-0.91109 -0.52999,-1.26058c-0.35324,-0.34957 -0.77161,-0.52425 -1.25483,-0.52425l-16.42004,0c-0.57258,0 -1.01322,0.19332 -1.32184,0.57997c-0.30858,0.38672 -0.46287,0.8701 -0.46287,1.45011c0,0.4685 0.20457,0.97618 0.61353,1.52274c0.40891,0.5466 0.84408,0.9761 1.30508,1.28839l0.00002,0.00001z" id="svg_3" fill="#3BA2D9"/><path d="m18.87837,5.31796c-2.43565,1.64854 -4.28509,2.92973 -5.54743,3.84329c-0.4233,0.31179 -0.7667,0.55518 -1.03042,0.72959c-0.26372,0.17453 -0.61445,0.35276 -1.0527,0.53462c-0.43809,0.18213 -0.84637,0.27293 -1.2252,0.27293l-0.01135,0l-0.0112,0c-0.37875,0 -0.78726,-0.09079 -1.22535,-0.27293c-0.43809,-0.18186 -0.78906,-0.3601 -1.0527,-0.53462c-0.26357,-0.17441 -0.60708,-0.4178 -1.03034,-0.72959c-1.00264,-0.73517 -2.8481,-2.01644 -5.53647,-3.84329c-0.42342,-0.28202 -0.79846,-0.60528 -1.12523,-0.96912l0,8.84475c0,0.49045 0.17445,0.90986 0.52354,1.25891c0.34901,0.34917 0.76869,0.5237 1.25887,0.5237l16.39785,0c0.49006,0 0.9097,-0.17453 1.25875,-0.5237c0.34917,-0.34917 0.52354,-0.76842 0.52354,-1.25891l0,-8.84475c-0.3194,0.35631 -0.69061,0.67957 -1.11415,0.96912l-0.00001,0z" id="svg_4" fill="#3BA2D9"/></svg>