 <svg xmlns="http://www.w3.org/2000/svg" xmlns:xlink="http://www.w3.org/1999/xlink" x="0px" y="0px" width="24px" height="17px" xml:space="preserve" fill="#FFFFFF"><path d="M23.948,0.52L13.359,16.818c-0.051,0.078-0.132,0.132-0.226,0.151c-0.024,0.006-0.049,0.008-0.074,0.008 c-0.068,0-0.137-0.02-0.195-0.057l-2.98-1.912L6.902,16.92c-0.108,0.069-0.248,0.075-0.362,0.017c-0.114-0.06-0.187-0.175-0.187-0.3 v-3.763l13.295-9.593L3.969,11.215L0.157,8.771C0.046,8.7-0.013,8.576,0.002,8.448c0.016-0.127,0.104-0.234,0.229-0.278L23.528,0.02 c0.141-0.049,0.3-0.007,0.395,0.105C24.017,0.239,24.028,0.396,23.948,0.52z"/></svg>