<?xml version="1.0" encoding="utf-8"?><svg version="1.1" id="Warstwa_65" xmlns="http://www.w3.org/2000/svg" xmlns:xlink="http://www.w3.org/1999/xlink" x="0px" y="0px" viewBox="0 0 32 32" style="enable-background:new 0 0 32 32;" xml:space="preserve"><style type="text/css">.st0{display:none;fill:#1D1D1B;}.st1{display:none;}.st2{display:inline;}.st3{fill:#1D1D1B;}.st4{fill:none;stroke:#FFFFFF;stroke-width:4;stroke-linecap:round;stroke-linejoin:round;stroke-miterlimit:10;}</style><path class="st0" d="M29,14H18V3c0-1.1-0.9-2-2-2s-2,0.9-2,2v11H3c-1.1,0-2,0.9-2,2s0.9,2,2,2h11v11c0,1.1,0.9,2,2,2s2-0.9,2-2V18h11c1.1,0,2-0.9,2-2S30.1,14,29,14z"/><g class="st1"><g class="st2"><path class="st3" d="M29.5,27h-27c-1.1,0-2,0.9-2,2s0.9,2,2,2h27.1c1.1,0,2-0.9,2-2S30.7,27,29.5,27z M2.5,18h17.1c1.1,0,2-0.9,2-2s-0.9-2-2-2H2.5c-1.1,0-2,0.9-2,2S1.3,18,2.5,18z M2.5,5h27.1c1.1,0,2-0.9,2-2s-0.9-2-2-2H2.5c-1.1,0-2,0.9-2,2S1.3,5,2.5,5z"/></g></g><line class="st4" x1="30" y1="30" x2="2" y2="2"/><line class="st4" x1="2" y1="30" x2="30" y2="2"/></svg>