<?xml version="1.0" encoding="utf-8"?><svg version="1.1" id="Warstwa_1" xmlns="http://www.w3.org/2000/svg" xmlns:xlink="http://www.w3.org/1999/xlink" x="0px" y="0px" viewBox="0 0 36 36" style="enable-background:new 0 0 36 36;" xml:space="preserve"><style type="text/css">.st0{fill:#D7D9DD;}</style><g><path class="st0" d="M18,0C8.1,0,0,8.1,0,18s8.1,18,18,18s18-8.1,18-18S27.9,0,18,0z M18,32c-7.7,0-14-6.3-14-14S10.3,4,18,4s14,6.3,14,14S25.7,32,18,32z"/><path class="st0" d="M26.1,19.9c-1-0.5-2.2,0-2.7,1c-1,2.1-3.1,3.5-5.4,3.5s-4.5-1.4-5.4-3.5c-0.5-1-1.7-1.4-2.7-1c-1,0.5-1.4,1.7-1,2.7c1.6,3.5,5.2,5.8,9.1,5.8s7.4-2.3,9.1-5.8C27.5,21.5,27.1,20.3,26.1,19.9z"/><circle class="st0" cx="14" cy="13.4" r="2.1"/><circle class="st0" cx="22" cy="13.4" r="2.1"/></g></svg>