<svg id="svg" version="1.1" width="400" height="400" xmlns="http://www.w3.org/2000/svg" xmlns:xlink="http://www.w3.org/1999/xlink" style="display: block;"><g id="svgg"><path id="path0" d="M0.000 200.000 L 0.000 400.000 200.000 400.000 L 400.000 400.000 400.000 200.000 L 400.000 0.000 200.000 0.000 L 0.000 0.000 0.000 200.000 M234.687 119.918 C 241.155 124.183,242.000 131.814,236.600 137.205 L 233.200 140.599 209.600 141.028 C 175.046 141.657,166.444 144.575,163.198 156.766 C 159.281 171.482,168.570 178.322,199.171 183.251 C 250.270 191.482,260.400 199.216,260.400 230.000 C 260.400 259.495,249.422 273.224,220.400 280.026 C 212.912 281.781,160.780 282.045,157.200 280.347 C 148.815 276.368,149.193 263.886,157.817 259.971 C 160.898 258.572,163.271 258.432,184.400 258.404 C 224.497 258.349,235.012 253.090,236.584 232.304 C 237.719 217.298,232.152 213.434,200.800 207.471 C 153.752 198.521,142.183 191.342,139.129 169.200 C 135.290 141.372,150.798 123.200,182.000 118.965 C 191.109 117.729,232.502 118.478,234.687 119.918 " stroke="none" fill="#02b2f2" fill-rule="evenodd"></path><path id="path1" d="M148.757 133.400 L 146.000 136.400 149.000 133.643 C 151.792 131.077,152.368 130.400,151.757 130.400 C 151.623 130.400,150.273 131.750,148.757 133.400 M189.800 141.351 C 190.570 141.553,191.830 141.553,192.600 141.351 C 193.370 141.150,192.740 140.986,191.200 140.986 C 189.660 140.986,189.030 141.150,189.800 141.351 M138.656 161.600 C 138.656 164.460,138.801 165.630,138.979 164.200 C 139.156 162.770,139.156 160.430,138.979 159.000 C 138.801 157.570,138.656 158.740,138.656 161.600 M249.600 198.650 C 249.600 198.788,250.770 199.958,252.200 201.250 L 254.800 203.600 252.450 201.000 C 250.260 198.576,249.600 198.032,249.600 198.650 M171.400 258.998 C 177.450 259.134,187.350 259.134,193.400 258.998 C 199.450 258.862,194.500 258.751,182.400 258.751 C 170.300 258.751,165.350 258.862,171.400 258.998 M205.800 281.351 C 206.570 281.553,207.830 281.553,208.600 281.351 C 209.370 281.150,208.740 280.986,207.200 280.986 C 205.660 280.986,205.030 281.150,205.800 281.351 " stroke="none" fill="#73cdf3" fill-rule="evenodd"></path><path id="path2" d="M237.029 230.000 C 237.035 232.200,237.190 233.005,237.374 231.789 C 237.558 230.573,237.553 228.773,237.363 227.789 C 237.173 226.805,237.023 227.800,237.029 230.000 M247.550 266.600 L 245.200 269.200 247.800 266.850 C 250.224 264.660,250.768 264.000,250.150 264.000 C 250.012 264.000,248.842 265.170,247.550 266.600 M171.848 281.398 C 178.145 281.534,188.225 281.533,194.248 281.398 C 200.272 281.262,195.120 281.151,182.800 281.152 C 170.480 281.152,165.552 281.263,171.848 281.398 " stroke="none" fill="#c4e6f5" fill-rule="evenodd"></path><path id="path3" d="M185.012 119.226 C 153.270 122.562,138.029 137.933,139.428 165.200 C 140.653 189.099,152.697 197.956,194.400 205.629 C 227.107 211.646,233.798 214.532,236.486 223.777 C 239.842 235.321,234.017 248.888,223.378 254.307 C 215.455 258.342,213.063 258.640,186.000 258.964 C 170.230 259.153,159.549 259.604,158.184 260.139 C 150.540 263.134,149.231 274.462,156.000 279.032 L 158.800 280.923 188.400 280.575 C 221.574 280.185,223.927 279.877,235.810 274.362 C 253.998 265.921,263.505 245.265,260.093 221.600 C 256.699 198.065,246.410 191.711,198.731 183.712 C 170.228 178.929,163.236 174.798,162.531 162.322 C 161.595 145.757,170.297 141.578,207.200 140.869 C 229.875 140.433,231.797 140.284,234.389 138.762 C 241.658 134.491,241.227 124.041,233.624 120.200 C 229.820 118.278,199.756 117.676,185.012 119.226 " stroke="none" fill="#f5f5f6" fill-rule="evenodd"></path></g></svg>