<?xml version="1.0" encoding="utf-8"?><svg version="1.1" id="Warstwa_1" xmlns="http://www.w3.org/2000/svg" xmlns:xlink="http://www.w3.org/1999/xlink" x="0px" y="0px" viewBox="0 0 68 68" style="enable-background:new 0 0 68 68;" xml:space="preserve"><style type="text/css">.st0{fill:none;}.st1{fill:#5e6c7c;}.st2{fill:#5e6c7c;}.st3{fill:#5e6c7c;}</style><g id="Warstwa_1_1_"><g id="Warstwa_9"><rect class="st0" width="68" height="68"/></g></g><g id="Warstwa_12"></g><g id="Warstwa_14"><g><path class="st1" d="M48,36c-0.512,0-1.023-0.195-1.414-0.586l-8-8c-0.781-0.781-0.781-2.047,0-2.828c0.781-0.781,2.047-0.781,2.828,0l8,8c0.781,0.781,0.781,2.047,0,2.828C49.023,35.805,48.512,36,48,36z"/></g><g><path class="st2" d="M40,44c-0.512,0-1.023-0.195-1.414-0.586c-0.781-0.781-0.781-2.047,0-2.828l8-8c0.781-0.781,2.047-0.781,2.828,0c0.781,0.781,0.781,2.047,0,2.828l-8,8C41.023,43.805,40.512,44,40,44z"/></g><g><path class="st3" d="M47,36H21c-1.104,0-2-0.896-2-2s0.896-2,2-2h26c1.104,0,2,0.896,2,2S48.104,36,47,36z"/></g></g></svg>