<?xml version="1.0" encoding="utf-8"?><svg version="1.1" id="Warstwa_1" xmlns="http://www.w3.org/2000/svg" xmlns:xlink="http://www.w3.org/1999/xlink" x="0px" y="0px" viewBox="0 0 36 36" style="enable-background:new 0 0 36 36;" xml:space="preserve"><style type="text/css">.st0{fill:#AFB3BB;}</style><g><path class="st0" d="M17.7,0C7.8,0.2-0.2,8.4,0,18.3S8.4,36.2,18.3,36S36.2,27.6,36,17.7C35.8,7.8,27.6-0.2,17.7,0z M18.3,32C10.6,32.1,4.1,26,4,18.3S10,4.1,17.7,4c7.7-0.1,14.1,6,14.3,13.7C32.1,25.4,26,31.9,18.3,32z"/><path class="st0" d="M26.1,19.8c-1-0.5-2.2,0-2.7,1c-1,2.1-3,3.6-5.3,3.6c-2.3,0-4.5-1.3-5.5-3.4c-0.5-1-1.7-1.4-2.7-1c-1,0.5-1.4,1.7-1,2.7c1.7,3.5,5.3,5.7,9.2,5.6c3.9-0.1,7.4-2.4,9-6C27.6,21.3,27.1,20.1,26.1,19.8z"/><ellipse transform="matrix(0.9998 -1.820897e-02 1.820897e-02 0.9998 -0.243 0.2556)" class="st0" cx="13.9" cy="13.5" rx="2.1" ry="2.1"/><ellipse transform="matrix(0.9998 -1.820897e-02 1.820897e-02 0.9998 -0.2391 0.4013)" class="st0" cx="21.9" cy="13.3" rx="2.1" ry="2.1"/></g></svg>