<?xml version="1.0" encoding="utf-8"?><svg version="1.1" id="Warstwa_1" xmlns="http://www.w3.org/2000/svg" xmlns:xlink="http://www.w3.org/1999/xlink" x="0px" y="0px" viewBox="0 0 36 36" style="enable-background:new 0 0 36 36;" xml:space="preserve"><style type="text/css">.st0{fill:#AFB3BB;}</style><path class="st0" d="M18,0C11.9,0,6.9,5,6.9,11.1V28c0,4.4,3.6,8.1,8.1,8.1s8.1-3.6,8.1-8.1c0-0.1,0-0.2,0-0.2c0-0.1,0-0.2,0-0.2V11.1c0-0.1,0-0.3,0-0.4c-0.2-2.6-2.4-4.6-5-4.6s-4.8,2-5,4.6c0,0.1,0,0.3,0,0.4v7.7c0,1.1,0.9,2,2,2s2-0.9,2-2v-7.7c0-0.6,0.5-1,1-1s1,0.5,1,1v16.4c0,0.1,0,0.2,0,0.2c0,0.1,0,0.2,0,0.2c0,2.2-1.8,4.1-4.1,4.1s-4.1-1.8-4.1-4.1V11.1C10.9,7.2,14.1,4,18,4s7.1,3.2,7.1,7.1v13c0,1.1,0.9,2,2,2s2-0.9,2-2v-13C29.1,5,24.1,0,18,0z"/></svg>